<svg width="175" height="90" viewBox="0 0 175 90" fill="none" xmlns="http://www.w3.org/2000/svg">
<path d="M19.078 56.3481C18.9846 55.9398 18.8373 55.5819 18.6361 55.2737C18.4349 54.9575 18.1834 54.692 17.8815 54.4759C17.5869 54.2527 17.2421 54.087 16.8468 53.9792C16.4588 53.8637 16.0312 53.8058 15.5642 53.8058C14.5582 53.8058 13.6995 54.0641 12.9881 54.5802C12.2839 55.0963 11.745 55.8397 11.3713 56.8103C11.0048 57.781 10.8216 58.952 10.8216 60.3234C10.8216 61.7105 10.9977 62.8968 11.3498 63.8827C11.7019 64.8692 12.2264 65.6242 12.9234 66.148C13.6205 66.6717 14.4863 66.9336 15.5211 66.9336C16.4336 66.9336 17.1917 66.7912 17.7953 66.5059C18.4061 66.2212 18.8624 65.8164 19.1642 65.2927C19.466 64.769 19.6169 64.1527 19.6169 63.4439L20.6517 63.5593H15.6073V58.9831H25.3942V62.2653C25.3942 64.4222 24.9666 66.2675 24.1115 67.8005C23.2636 69.3259 22.0924 70.497 20.5977 71.3136C19.1103 72.1225 17.4037 72.5268 15.478 72.5268C13.3295 72.5268 11.4432 72.0376 9.81921 71.0593C8.19526 70.081 6.92701 68.6863 6.0144 66.8761C5.109 65.0654 4.65632 62.912 4.65632 60.4159C4.65632 58.4593 4.93296 56.7259 5.48627 55.2158C6.04675 53.7056 6.82282 52.4309 7.81444 51.3905C8.80606 50.3429 9.95214 49.5531 11.2528 49.0216C12.5534 48.4823 13.9474 48.2126 15.4349 48.2126C16.7426 48.2126 17.957 48.4129 19.078 48.8136C20.2061 49.2065 21.2013 49.7689 22.0636 50.5008C22.9331 51.2247 23.6337 52.0841 24.1654 53.0776C24.6972 54.0717 25.0205 55.1619 25.1355 56.3481H19.078ZM28.1885 72.2034V48.5362H37.7167C39.3551 48.5362 40.7886 48.8559 42.0174 49.4954C43.2461 50.1348 44.2018 51.0554 44.8844 52.2575C45.5671 53.459 45.9084 54.9 45.9084 56.5795C45.9084 58.2742 45.5563 59.7036 44.8521 60.867C44.1551 62.0298 43.1743 62.9085 41.9096 63.5014C40.6521 64.0947 39.1826 64.3912 37.5012 64.3912H31.8101V59.399H36.294C36.9982 59.399 37.5982 59.3064 38.094 59.1219C38.597 58.9292 38.9814 58.6246 39.2473 58.2086C39.5203 57.7927 39.6568 57.2497 39.6568 56.5795C39.6568 55.9012 39.5203 55.3505 39.2473 54.927C38.9814 54.4953 38.597 54.1795 38.094 53.9792C37.5982 53.7712 36.9982 53.667 36.294 53.667H34.1814V72.2034H28.1885ZM41.1227 61.3403L46.6413 72.2034H40.1311L34.7419 61.3403H41.1227ZM48.4631 72.2034V48.5362H64.372V53.7132H54.4558V57.781H63.553V62.9583H54.4558V67.0261H64.3289V72.2034H48.4631ZM67.3442 72.2034V48.5362H83.253V53.7132H73.3369V57.781H82.434V62.9583H73.3369V67.0261H83.2104V72.2034H67.3442ZM105.325 48.5362V72.2034H100.324L92.3478 59.7686H92.2184V72.2034H86.2252V48.5362H91.313L99.1596 60.9244H99.3322V48.5362H105.325Z" fill="#A5EA4F"/>
<path d="M108.159 72.2034V48.5362H114.153V57.781H122.085V48.5362H128.078V72.2034H122.085V62.9583H114.153V72.2034H108.159ZM143.988 48.5362H149.98V63.6981C149.98 65.5007 149.578 67.0607 148.773 68.3781C147.976 69.688 146.862 70.7008 145.432 71.4178C144.002 72.1261 142.342 72.4805 140.452 72.4805C138.548 72.4805 136.881 72.1261 135.451 71.4178C134.021 70.7008 132.907 69.688 132.109 68.3781C131.319 67.0607 130.924 65.5007 130.924 63.6981V48.5362H136.917V63.1434C136.917 63.8751 137.068 64.53 137.369 65.1076C137.671 65.6781 138.088 66.1246 138.62 66.4485C139.159 66.7719 139.77 66.9336 140.452 66.9336C141.142 66.9336 141.753 66.7719 142.284 66.4485C142.816 66.1246 143.233 65.6781 143.535 65.1076C143.837 64.53 143.988 63.8751 143.988 63.1434V48.5362ZM152.829 72.2034V48.5362H162.4C164.081 48.5362 165.494 48.7789 166.636 49.2643C167.786 49.7496 168.652 50.4353 169.234 51.3213C169.823 52.2071 170.118 53.251 170.118 54.453C170.118 55.3236 169.938 56.1173 169.578 56.8337C169.226 57.5502 168.73 58.1512 168.091 58.6363C167.451 59.1142 166.704 59.4452 165.849 59.6303V59.8612C166.798 59.8998 167.66 60.1581 168.436 60.6356C169.212 61.1054 169.83 61.7568 170.29 62.5886C170.75 63.4129 170.98 64.3835 170.98 65.5007C170.98 66.7952 170.663 67.9469 170.031 68.9563C169.406 69.9651 168.515 70.7588 167.358 71.3364C166.201 71.9146 164.822 72.2034 163.219 72.2034H152.829ZM158.821 67.0724H161.624C162.63 67.0724 163.385 66.872 163.887 66.4714C164.39 66.063 164.642 65.462 164.642 64.6688C164.642 64.1141 164.523 63.6442 164.286 63.2588C164.049 62.8739 163.711 62.581 163.273 62.3807C162.842 62.1803 162.321 62.0802 161.71 62.0802H158.821V67.0724ZM158.821 58.1049H161.279C161.803 58.1049 162.267 58.0159 162.669 57.839C163.072 57.662 163.385 57.4078 163.607 57.0763C163.837 56.7371 163.952 56.3252 163.952 55.8397C163.952 55.108 163.708 54.5491 163.219 54.1642C162.731 53.7712 162.113 53.5749 161.365 53.5749H158.821V58.1049Z" fill="white"/>
<path d="M73.9676 11.3427C73.49 11.2702 62.428 9.58342 56.4392 15.0427C55.106 16.2579 54.1708 17.7089 53.5144 19.2143C53.1763 18.779 52.8182 18.3618 52.4004 17.9628C47.4658 13.4648 38.4132 14.8432 38.0152 14.8976C37.1796 15.0246 36.5429 15.6231 36.4036 16.3667C36.3439 16.7114 34.8318 24.982 39.7661 29.48C42.7903 32.2368 47.3665 32.7809 50.5299 32.7809C51.0872 32.7809 51.5847 32.7809 52.0419 32.7447V43.6633H56.0213V32.6903C56.6976 32.7447 57.5133 32.7809 58.4287 32.7809C62.3085 32.7809 67.8597 32.1099 71.5205 28.7726C77.5093 23.3133 75.6588 13.2109 75.5791 12.7937C75.5108 12.4268 75.3188 12.0883 75.0304 11.8251C74.7416 11.5619 74.3703 11.387 73.9676 11.3246V11.3427ZM51.9826 29.1354C49.6545 29.2805 45.0784 29.226 42.5715 26.9408C40.0446 24.6373 40.0049 20.4839 40.164 18.3437C42.4919 18.1986 47.068 18.253 49.5748 20.5383C52.1016 22.8417 52.1415 26.9952 51.9826 29.1354ZM68.7152 26.2516C65.2731 29.3893 58.966 29.3168 56.1209 29.0991C55.8819 26.5055 55.8022 20.7741 59.2444 17.6182C62.6865 14.4805 68.9936 14.553 71.8387 14.7707C72.0777 17.3643 72.1574 23.0957 68.7152 26.2516Z" fill="#A5EA4F"/>
<mask id="mask0_183_12" style="mask-type:luminance" maskUnits="userSpaceOnUse" x="6" y="0" width="100" height="45">
<path d="M6.14558 45C6.14558 39.0905 7.4356 33.2389 9.94195 27.7792C12.4483 22.3196 16.122 17.3588 20.7531 13.1802C25.3842 9.00158 30.8822 5.68688 36.9331 3.42542C42.984 1.16396 49.4695 -2.58312e-07 56.019 0C62.5684 2.58312e-07 69.0534 1.16396 75.1044 3.42542C81.1554 5.68688 86.6535 9.00158 91.2845 13.1802C95.9156 17.3588 99.5892 22.3196 102.096 27.7792C104.602 33.2389 105.892 39.0905 105.892 45H56.019H6.14558Z" fill="white"/>
</mask>
<g mask="url(#mask0_183_12)">
<path d="M6.14558 45C6.14558 39.0905 7.4356 33.2389 9.94195 27.7792C12.4483 22.3196 16.122 17.3588 20.7531 13.1802C25.3842 9.00158 30.8822 5.68688 36.9331 3.42542C42.984 1.16396 49.4695 -2.58312e-07 56.019 0C62.5684 2.58312e-07 69.0534 1.16396 75.1044 3.42542C81.1554 5.68688 86.6535 9.00158 91.2845 13.1802C95.9156 17.3588 99.5892 22.3196 102.096 27.7792C104.602 33.2389 105.892 39.0905 105.892 45H56.019H6.14558Z" fill="#A5EA4F" fill-opacity="0.4" stroke="#A5EA4F" stroke-width="8"/>
</g>
</svg>
